<svg width="128" height="128" viewBox="0 0 128 128" fill="none" xmlns="http://www.w3.org/2000/svg">
<path d="M127.5 64C127.5 99.0701 99.0701 127.5 64 127.5C28.9299 127.5 0.5 99.0701 0.5 64C0.5 28.9299 28.9299 0.5 64 0.5C99.0701 0.5 127.5 28.9299 127.5 64Z" fill="white" stroke="#EDF3F5"/>
<path fill-rule="evenodd" clip-rule="evenodd" d="M66.4891 52.8316C66.4891 47.4859 70.8227 43.1523 76.1684 43.1523C81.514 43.1523 85.8476 47.4859 85.8476 52.8316C85.8476 58.1773 81.514 62.5108 76.1684 62.5108C70.8227 62.5108 66.4891 58.1773 66.4891 52.8316ZM76.1684 47.6197C73.2899 47.6197 70.9565 49.9531 70.9565 52.8316C70.9565 55.71 73.2899 58.0435 76.1684 58.0435C79.0468 58.0435 81.3802 55.71 81.3802 52.8316C81.3802 49.9531 79.0468 47.6197 76.1684 47.6197ZM97.1203 80.296C97.7605 78.776 98.2789 77.1903 98.6634 75.551C100.446 67.9534 100.446 60.0466 98.6634 52.449C96.0898 41.4772 87.5229 32.9103 76.551 30.3366C68.9534 28.5545 61.0466 28.5545 53.449 30.3366C42.4772 32.9103 33.9103 41.4772 31.3366 52.449C29.5545 60.0466 29.5545 67.9535 31.3366 75.551C31.5256 76.3566 31.7468 77.1492 31.999 77.9274L34.3471 75.5798C42.8394 67.0891 56.6081 67.0891 65.1005 75.5798L71.6753 82.1534L73.399 80.4301C80.0028 73.8276 90.6034 73.905 97.1203 80.296ZM94.9485 84.5337L94.8529 84.419C90.1847 78.8183 81.7138 78.434 76.5575 83.5893L74.8345 85.312L84.2196 94.6952C88.5592 92.2765 92.2193 88.8057 94.8642 84.6188C94.893 84.5909 94.9211 84.5626 94.9485 84.5337ZM79.8806 96.6742L61.9419 78.739C55.1941 71.9925 44.2535 71.9925 37.5057 78.739L33.8576 82.3864C37.7845 89.993 44.884 95.6543 53.449 97.6634C61.0466 99.4455 68.9534 99.4455 76.551 97.6634C77.688 97.3967 78.7992 97.0656 79.8806 96.6742Z" fill="url(#paint0_linear)"/>
<defs>
<linearGradient id="paint0_linear" x1="-21.1807" y1="14.6276" x2="15.0288" y2="129.574" gradientUnits="userSpaceOnUse">
<stop stop-color="#36FDDE"/>
<stop offset="0.561" stop-color="#F4FDD0"/>
<stop offset="0.975" stop-color="#F5DAF8"/>
<stop offset="1" stop-color="#F5D8FA"/>
</linearGradient>
</defs>
</svg>
